<?xml version="1.0" standalone="no"?>
<!DOCTYPE svg PUBLIC "-//W3C//DTD SVG 20010904//EN"
 "http://www.w3.org/TR/2001/REC-SVG-20010904/DTD/svg10.dtd">
<svg version="1.0" xmlns="http://www.w3.org/2000/svg"
 width="360.000000pt" height="360.000000pt" viewBox="0 0 360.000000 360.000000"
 preserveAspectRatio="xMidYMid meet">

<g transform="translate(0.000000,360.000000) scale(0.100000,-0.100000)"
fill="#000000" stroke="none">
<path d="M1760 2632 c-271 -20 -523 -168 -674 -396 -25 -39 -46 -75 -45 -80 0
-6 64 -60 142 -119 l141 -108 33 64 c146 290 516 386 761 199 l45 -34 125 125
125 125 -59 46 c-163 128 -383 194 -594 178z"/>
<path d="M1825 1745 l0 -165 239 0 238 0 -7 -27 c-15 -63 -57 -135 -109 -190
-55 -55 -56 -58 -37 -73 11 -8 73 -56 139 -107 l119 -91 41 41 c88 92 166 245
198 392 18 83 25 349 10 373 -5 9 -111 12 -419 12 l-412 0 0 -165z"/>
</g>
</svg>
